<svg id="ejfwuqrdpsos1" xmlns="http://www.w3.org/2000/svg" xmlns:xlink="http://www.w3.org/1999/xlink" viewBox="0 0 2500 2500" shape-rendering="geometricPrecision" text-rendering="geometricPrecision"><circle id="ejfwuqrdpsos2" r="703.330000" transform="matrix(0 0 0 0 1250 1250)" fill="none" stroke="rgb(66,66,66)" stroke-width="40" stroke-miterlimit="10"/><circle id="ejfwuqrdpsos3" r="622.350000" transform="matrix(0 0 0 0 1250 1250)" fill="none" stroke="rgb(66,66,66)" stroke-width="55.120000" stroke-linecap="round" stroke-miterlimit="10" stroke-dasharray="0,102.920000"/><g id="ejfwuqrdpsos4" opacity="0"><g id="ejfwuqrdpsos5" transform="matrix(1 0 0 1 -0.00344482421883 0)"><path id="ejfwuqrdpsos6" d="M1292,1712.450000C1296.140000,1703.990000,1299.520000,1695.330000,1301.170000,1686.270000C1302.229221,1680.774015,1302.565403,1675.163140,1302.170000,1669.580000C1301.819734,1663.418618,1299.898819,1657.449322,1296.590000,1652.240000C1294.404395,1648.911611,1291.704101,1645.951414,1288.590000,1643.470000C1287.840000,1642.840000,1287.050000,1642.250000,1286.230000,1641.650000C1287.330000,1645.580000,1288.290000,1648.590000,1289.020000,1651.650000C1291.650000,1662.650000,1289.240000,1672.650000,1282.300000,1681.450000C1276.140000,1689.250000,1267.120000,1689.170000,1261.630000,1682.100000C1260.860971,1681.143552,1260.190879,1680.111610,1259.630000,1679.020000C1255.450000,1670.790000,1255.120000,1662.120000,1257.120000,1653.350000C1258.212405,1648.759763,1259.892967,1644.329801,1262.120000,1640.170000C1265.190636,1634.558697,1268.758255,1629.234042,1272.780000,1624.260000C1273.500000,1623.330000,1274.180000,1622.400000,1274.780000,1621.470000C1284.780000,1606.710000,1282.610000,1591.670000,1268.230000,1579.930000L1268.100000,1579.820000C1265.592104,1577.839507,1262.945305,1576.041556,1260.180000,1574.440000C1256.100000,1572.030000,1251.830000,1569.860000,1247.770000,1567.440000L1246.830000,1568.690000C1247.960000,1570.410000,1249.180000,1572.070000,1250.220000,1573.840000C1251.380000,1575.840000,1252.440000,1577.720000,1253.380000,1579.560000C1262.380000,1596.830000,1261.820000,1607.560000,1249.450000,1621.850000C1248.650000,1622.760000,1247.810000,1623.690000,1246.920000,1624.640000C1245.205855,1626.225993,1243.721528,1628.043536,1242.510000,1630.040000C1240.610000,1633.720000,1238.670000,1637.410000,1236.890000,1641.160000C1235.640000,1643.790000,1234.470000,1646.460000,1233.440000,1649.160000C1232.410000,1651.860000,1233.210000,1655.610000,1233.170000,1660.100000C1230.624421,1658.006480,1228.338204,1655.616192,1226.360000,1652.980000C1224.243272,1650.185603,1222.768301,1646.959106,1222.040000,1643.530000C1220.120000,1634.530000,1224.320000,1627.620000,1230.510000,1621.330000C1214.610000,1619.530000,1202.640000,1627.020000,1199.870000,1639.950000C1197.100000,1652.880000,1199.930000,1664.470000,1209.320000,1674.140000C1214.140000,1679.140000,1219.100000,1683.940000,1223.900000,1688.940000C1226.560000,1691.700000,1229.160000,1694.500000,1231.660000,1697.410000C1239.144155,1705.856444,1242.524671,1717.172394,1240.900000,1728.340000C1240.900000,1728.710000,1240.810000,1729.090000,1240.750000,1729.460000L1227.230000,1728.690000C1246.420000,1733,1271.880000,1732.030000,1297.810000,1726.810000L1284.400000,1727.810000C1284.472155,1726.902721,1284.695219,1726.013845,1285.060000,1725.180000C1287.260000,1720.910000,1289.840000,1716.790000,1292,1712.450000Z" fill="rgb(66,66,66)" stroke="none" stroke-width="1"/><path id="ejfwuqrdpsos7" d="M1231.160000,1566.140000C1231.930000,1576.020000,1237.320000,1583.280000,1242.390000,1590.670000C1249.670000,1601.280000,1249.510000,1607.820000,1240.980000,1619.330000C1242.740000,1606.330000,1236.690000,1596.520000,1232.110000,1586.140000C1230.110000,1581.550000,1229.420000,1576.280000,1228.740000,1571.240000C1228.530000,1569.670000,1230.300000,1567.850000,1231.160000,1566.140000Z" fill="rgb(66,66,66)" stroke="none" stroke-width="1"/></g><path id="ejfwuqrdpsos8" d="M1183.110000,1714.940000C1172.340000,1726.880000,1173.640000,1733.220000,1187.510000,1738.870000C1207.960000,1747.180000,1229.640000,1747.870000,1251.300000,1747.680000C1278.730000,1747.410000,1305.890000,1744.440000,1332.070000,1735.820000C1339.976211,1733.250675,1347.526025,1729.692485,1354.540000,1725.230000C1364.600000,1718.730000,1363.700000,1710.680000,1353.050000,1705.050000C1349.850000,1703.360000,1346.460000,1702.050000,1343.050000,1700.520000C1355.100000,1700.950000,1366.260000,1707.740000,1373.180000,1717.780000C1374.340000,1719.470000,1378.750000,1720.320000,1381.040000,1719.590000Q1405.540000,1711.810000,1429.750000,1703.090000C1448.840000,1696.220000,1467.750000,1688.880000,1486.750000,1681.880000C1491.130000,1680.270000,1495.750000,1679.300000,1500.190000,1677.820000C1521.800000,1670.580000,1528.390000,1683.160000,1528.980000,1700.060000C1507.980000,1701.370000,1486.650000,1700.620000,1466.200000,1704.490000C1438.200000,1709.780000,1410.870000,1718.640000,1383.200000,1725.860000C1375.900000,1727.770000,1367.830000,1746.490000,1364.810000,1753.860000C1362.300000,1760,1361.560000,1759.860000,1359.580000,1761.860000C1359.990000,1760.860000,1366.290000,1740.960000,1366.730000,1732.310000C1309.290000,1760.140000,1249.320000,1761.780000,1187.480000,1751.400000C1193.700000,1764.400000,1204.090000,1772.990000,1216.970000,1778.600000C1236.360000,1787.060000,1256.970000,1788.460000,1277.530000,1786C1300.700000,1783.230000,1316.080000,1779.800000,1349.260000,1769.130000C1350.810000,1768.840000,1351.170000,1769.130000,1351.020000,1769.130000C1314.230000,1783.880000,1271.870000,1797.130000,1232.020000,1791.230000C1204.410000,1787.120000,1184.020000,1772.230000,1169.710000,1748.750000C1159.870000,1732.420000,1163.430000,1722.750000,1183.110000,1714.940000Z" fill="rgb(66,66,66)" stroke="none" stroke-width="1"/></g><text id="ejfwuqrdpsos9" dx="0" dy="0" font-family="VeganStylePersonalUse, &quot;Vegan Style Personal Use&quot;" font-size="350" transform="matrix(1 -0.09000000000000 -0 1 1302.30999999999995 1530.34999999999991)" fill="rgb(255,255,255)" stroke="none" stroke-width="1"><![CDATA[Roll]]></text><path id="ejfwuqrdpsos10" d="M1209.710000,1299.290000C1210.973767,1298.732414,1212.442896,1298.925213,1213.520000,1299.790000C1214.648591,1300.739476,1215.541935,1301.937446,1216.130000,1303.290000C1217.899541,1305.074215,1219.543469,1306.978766,1221.050000,1308.990000C1222.638756,1311.054034,1224.082230,1313.225927,1225.370000,1315.490000C1226.455376,1317.367837,1227.362664,1319.343113,1228.080000,1321.390000C1228.680000,1323.190000,1228.710000,1324.490000,1228.180000,1325.290000C1224.959325,1328.524075,1221.952948,1331.964707,1219.180000,1335.590000Q1213.340000,1342.900000,1205.930000,1353.190000Q1198.520000,1363.480000,1189.930000,1376.290000Q1181.380000,1389.100000,1172.860000,1402.890000Q1164.340000,1416.680000,1156.300000,1430.890000Q1148.300000,1445.090000,1141.740000,1458.490000Q1135.180000,1471.890000,1130.600000,1483.590000C1127.851383,1490.250645,1125.839423,1497.191907,1124.600000,1504.290000C1123.940562,1507.785288,1123.839305,1511.363010,1124.300000,1514.890000C1124.524188,1517.374905,1126.106647,1519.531053,1128.410000,1520.490000C1130.020440,1521.161199,1131.696037,1521.663879,1133.410000,1521.990000C1135.196996,1522.326220,1137.011653,1522.493624,1138.830000,1522.490000C1141.294686,1522.482166,1143.751650,1522.214012,1146.160000,1521.690000Q1149.860000,1520.890000,1153.690000,1519.690000Q1157.090000,1519.490000,1157.100000,1522.190000C1156.997464,1524.322342,1156.339009,1526.390786,1155.190000,1528.190000C1153.812848,1530.534486,1152.131597,1532.686487,1150.190000,1534.590000C1148.608465,1536.360959,1146.554906,1537.644434,1144.270000,1538.290000Q1140.850000,1538.690000,1137.550000,1538.890000C1135.340000,1539.020000,1132.890000,1539.090000,1130.220000,1539.090000C1127.804433,1539.091362,1125.390675,1538.957821,1122.990000,1538.690000C1120.603829,1538.422151,1118.255586,1537.885410,1115.990000,1537.090000L1116.190000,1537.290000Q1103.950000,1534.100000,1100.330000,1523.990000Q1096.710000,1513.880000,1099.130000,1498.690000C1100.548825,1491.046956,1102.554769,1483.524669,1105.130000,1476.190000Q1109.350000,1463.890000,1115.370000,1450.690000Q1121.390000,1437.490000,1128.820000,1423.490000Q1136.240000,1409.490000,1144.280000,1395.890000Q1152.320000,1382.290000,1160.440000,1369.390000Q1168.570000,1356.490000,1176.200000,1345.090000Q1160.340000,1357.690000,1144.480000,1372.090000Q1128.620000,1386.490000,1113.560000,1401.590000Q1098.560000,1416.700000,1084.650000,1431.790000Q1070.740000,1446.880000,1059.360000,1460.690000Q1052.730000,1472.490000,1046.710000,1483.590000Q1040.690000,1494.690000,1035.970000,1503.890000Q1031.240000,1513.100000,1028.140000,1519.890000C1026.545618,1523.079480,1025.301685,1526.432399,1024.430000,1529.890000C1023.890000,1530.820000,1022.920000,1531.060000,1021.510000,1530.590000C1019.831783,1529.978849,1018.246626,1529.137470,1016.800000,1528.090000C1014.851668,1526.723854,1013.003613,1525.220012,1011.270000,1523.590000C1009.425687,1521.892888,1007.717129,1520.053931,1006.160000,1518.090000C1004.823109,1516.437590,1003.644586,1514.663110,1002.640000,1512.790000C1001.770000,1511.120000,1001.470000,1509.790000,1001.740000,1508.890000Q1004.950000,1500.700000,1011.680000,1487.590000Q1018.410000,1474.480000,1027.140000,1458.790000Q1035.870000,1443.100000,1045.810000,1425.890000Q1055.750000,1408.680000,1065.180000,1392.290000Q1072.410000,1379.690000,1079.130000,1368.290000Q1085.850000,1356.890000,1091.130000,1348.190000Q1096.350000,1339.490000,1100.060000,1334.190000Q1103.770000,1328.890000,1104.980000,1328.490000C1103.380000,1328.230000,1100.930000,1329.230000,1097.650000,1331.490000C1093.558444,1334.396008,1089.666378,1337.573137,1086,1341Q1079.370000,1347.100000,1071.650000,1355.200000Q1063.930000,1363.300000,1056.190000,1372.200000Q1048.450000,1381.110000,1041.030000,1390.200000Q1033.610000,1399.290000,1027.680000,1407.300000Q1021.750000,1415.300000,1017.680000,1421.700000Q1013.610000,1428.100000,1012.560000,1431.500000L1011.360000,1433.500000C1010.550000,1434.300000,1009.250000,1433.570000,1007.440000,1431.300000C1005.347731,1428.571722,1003.563556,1425.620455,1002.120000,1422.500000C1000.398102,1418.961019,999.086259,1415.236860,998.210000,1411.400000C997.330000,1407.600000,996.900000,1405.040000,998.100000,1402.900000L998.100000,1402.900000C999.938099,1399.749035,1002.056683,1396.770299,1004.430000,1394Q1009.350000,1387.910000,1016.680000,1380.100000Q1024.010000,1372.290000,1033.140000,1363.400000Q1042.270000,1354.500000,1052.140000,1345.800000Q1062.010000,1337.100000,1071.820000,1329.400000C1077.781593,1324.687196,1083.979642,1320.281474,1090.390000,1316.200000C1095.351022,1312.958094,1100.673758,1310.306794,1106.250000,1308.300000C1111,1306.700000,1114.560000,1306.570000,1117.370000,1307.770000L1117.190000,1307.700000C1118.190699,1308.221856,1119.051487,1308.976332,1119.700000,1309.900000C1120.970182,1311.436248,1122.110758,1313.075200,1123.110000,1314.800000C1124.295949,1316.850171,1125.238974,1319.031547,1125.920000,1321.300000C1126.642074,1323.491309,1126.813790,1325.826642,1126.420000,1328.100000C1125.678091,1332.451111,1124.467718,1336.709209,1122.810000,1340.800000Q1119.990000,1348.110000,1115.810000,1356.700000Q1111.630000,1365.290000,1106.280000,1375.100000Q1100.950000,1384.910000,1095.280000,1395.300000L1094.480000,1396.900000Q1107.330000,1382.710000,1121.180000,1368.700000Q1135.030000,1354.690000,1149.490000,1342Q1163.950000,1329.310000,1179,1318.500000C1188.735956,1311.489732,1198.932289,1305.142080,1209.520000,1299.500000Z" fill="rgb(255,255,255)" stroke="rgb(255,255,255)" stroke-width="5" stroke-miterlimit="10"/><path id="ejfwuqrdpsos11" d="M1252.670000,1320.870000C1253.090000,1319.470000,1253.550000,1318.700000,1254.040000,1318.560000C1254.694381,1318.401484,1255.366965,1318.330863,1256.040000,1318.350000Q1258.160000,1318.770000,1261.420000,1319.190000C1263.562126,1319.464175,1265.676624,1319.922539,1267.740000,1320.560000C1269.576771,1321.093331,1271.320517,1321.906180,1272.910000,1322.970000C1274.208529,1323.767182,1274.941372,1325.232868,1274.800000,1326.750000Q1273.960000,1329.690000,1272.060000,1335.570000Q1270.160000,1341.450000,1268.160000,1347.440000C1267.004330,1350.969141,1265.669260,1354.436986,1264.160000,1357.830000Q1262.160000,1362.240000,1261.100000,1362.450000C1260.032968,1362.373781,1258.975191,1362.199717,1257.940000,1361.930000Q1255.620000,1361.400000,1252.940000,1360.930000C1251.180000,1360.580000,1249.560000,1360.300000,1248.090000,1360.090000C1247.082825,1359.886693,1246.049173,1359.849536,1245.030000,1359.980000C1244.190000,1359.980000,1243.690000,1359.840000,1243.560000,1359.560000C1243.430000,1359.280000,1243.480000,1358.860000,1243.770000,1358.300000C1244.266835,1356.162330,1244.898090,1354.058148,1245.660000,1352Q1247.150000,1347.800000,1248.660000,1342.760000Q1250.170000,1337.720000,1251.400000,1332.050000C1252.232704,1328.381295,1252.658608,1324.632002,1252.670000,1320.870000Z" fill="rgb(255,255,255)" stroke="rgb(255,255,255)" stroke-width="5" stroke-miterlimit="10"/><g id="ejfwuqrdpsos12"><path id="ejfwuqrdpsos13" d="M876.930000,868.450000C876.141771,863.103184,873.693068,858.139313,869.930000,854.260000Q864.320000,848.560000,853.930000,846.060000Q843.540000,843.560000,827.930000,844.940000Q801.930000,847.200000,774.730000,861.390000C755.398484,871.658242,737.227335,883.975733,720.530000,898.130000C701.535630,914.146026,683.753651,931.546962,667.330000,950.190000C649.631797,970.141515,633.008275,991.021060,617.530000,1012.740000Q593.920000,1045.820000,573.530000,1080.400000Q553.140000,1114.980000,537.530000,1148.140000C527.786002,1168.627476,519.238319,1189.662788,511.930000,1211.140000Q501.930000,1241.020000,499.130000,1264.060000C498.264356,1275.247418,499.073267,1286.501387,501.530000,1297.450000C503.619164,1306.954278,507.635225,1315.929154,513.330000,1323.820000C518.698244,1331.119728,525.679600,1337.081259,533.730000,1341.240000Q545.920000,1347.570000,562.330000,1347.730000Q582.330000,1347.190000,603.530000,1338.530000C618.438822,1332.319211,632.595811,1324.438935,645.730000,1315.040000C660.433898,1304.552607,674.277803,1292.909013,687.130000,1280.220000C700.913826,1266.686555,713.997531,1252.458026,726.330000,1237.590000Q738.070000,1223.450000,749.030000,1208.430000Q755.630000,1199.430000,761.930000,1190.070000Q778.730000,1165.200000,792.330000,1140.810000L791.530000,1142.480000Q793.930000,1139.480000,791.330000,1136.300000C789.400267,1134.041505,786.920287,1132.319297,784.130000,1131.300000C781.131964,1130.107708,777.953738,1129.431490,774.730000,1129.300000C771.530000,1129.180000,769.390000,1129.970000,768.330000,1131.660000L766.840000,1134.070000Q757,1150,744.930000,1167.400000Q731.930000,1186.140000,716.930000,1204.850000Q701.930000,1223.560000,685.930000,1240.360000C675.791525,1251.077176,664.896865,1261.052808,653.330000,1270.210000C643.108281,1278.383639,631.965974,1285.334156,620.130000,1290.920000Q603.520000,1298.570000,587.930000,1298.730000Q573.130000,1299.220000,568.330000,1284.650000Q563.530000,1270.080000,567.530000,1246.520000Q569.530000,1237.150000,572.330000,1226.100000Q575.130000,1215.050000,579.530000,1202.670000C584.217515,1188.399164,589.760899,1174.423826,596.130000,1160.820000Q605.530000,1140.820000,615.130000,1121.950000Q623.930000,1105.190000,638.330000,1081.320000Q652.730000,1057.450000,670.530000,1031.510000Q688.340000,1005.560000,708.530000,979.780000C721.259466,963.452508,734.810266,947.782308,749.130000,932.830000C761.374955,919.923797,774.615760,908.000385,788.730000,897.170000Q807.930000,882.680000,824.330000,879.650000Q832.330000,879.760000,836.530000,881.380000C839.330000,882.480000,840.330000,884.650000,839.530000,887.920000C839.461622,889.593148,839.123957,891.244332,838.530000,892.810000Q837.530000,895.710000,835.930000,899.810000C832.465885,908.590210,828.250233,917.054971,823.330000,925.110000C817.373259,935.140436,810.897810,944.853610,803.930000,954.210000Q793.130000,968.740000,782.130000,981.310000Q771.130000,993.880000,762.330000,1000.650000C767.772714,1003.856437,773.456511,1006.634811,779.330000,1008.960000Q785.930000,1011.370000,789.930000,1011.030000C793.393522,1010.729918,796.777858,1009.826300,799.930000,1008.360000C803.030814,1006.939064,805.979280,1005.206841,808.730000,1003.190000C811.253696,1001.343283,813.658464,999.339309,815.930000,997.190000C817.793951,995.427642,819.531576,993.536304,821.130000,991.530000Q830.730000,978.690000,839.930000,964.890000Q849.130000,951.090000,856.730000,937.420000C861.516912,928.871241,865.856102,920.079373,869.730000,911.080000C873.061639,903.541087,875.414106,895.606550,876.730000,887.470000C877.786866,881.179111,877.854347,874.761722,876.930000,868.450000Z" fill="rgb(255,255,255)" stroke="none" stroke-width="1"/><path id="ejfwuqrdpsos14" d="M947.130000,1070.910000C946.276536,1066.173411,944.362037,1061.691433,941.530000,1057.800000Q940.720000,1042.260000,933.330000,1030.510000Q925.940000,1018.760000,909.930000,1017C898.148569,1017.311927,886.537323,1019.888809,875.730000,1024.590000C863.578860,1029.797882,852.096739,1036.445426,841.530000,1044.390000C829.932482,1053.051714,819.153987,1062.759054,809.330000,1073.390000C792.372783,1091.553501,778.067966,1112.022620,766.840000,1134.190000Q764.020000,1139.750000,761.530000,1145.380000C756.240913,1156.971977,752.476234,1169.200460,750.330000,1181.760000Q749.520000,1187.430000,749.130000,1192.460000C748.860000,1195.820000,748.730000,1198.960000,748.730000,1201.900000Q748.800000,1205.290000,749.030000,1208.500000Q751.150000,1238.500000,766.330000,1252.360000Q783.130000,1267.690000,809.130000,1265.810000Q823.130000,1264.600000,838.130000,1256.870000C848.671118,1251.363816,858.537192,1244.652200,867.530000,1236.870000C877.567236,1228.250968,886.804823,1218.742278,895.130000,1208.460000C903.823214,1197.839311,911.711783,1186.584730,918.730000,1174.790000C925.582619,1163.266871,931.533700,1151.230976,936.530000,1138.790000C941.249540,1127.241636,944.670552,1115.204367,946.730000,1102.900000C947.202763,1100.356733,947.536591,1097.789594,947.730000,1095.210000C947.865529,1093.024079,948.200250,1090.855085,948.730000,1088.730000C948.786515,1082.751735,948.250564,1076.782579,947.130000,1070.910000ZM919.130000,1093.360000C917.791966,1101.918550,915.511435,1110.302855,912.330000,1118.360000C908.673983,1127.869917,904.398139,1137.129793,899.530000,1146.080000C894.453739,1155.467320,888.775203,1164.516235,882.530000,1173.170000C876.673172,1181.362225,870.186872,1189.085604,863.130000,1196.270000C857.019826,1202.537525,850.169445,1208.037977,842.730000,1212.650000Q832.320000,1218.960000,822.730000,1219.400000Q809.530000,1219.760000,805.530000,1209.910000Q801.530000,1200.060000,804.330000,1184.610000C805.631521,1176.136490,807.844351,1167.828319,810.930000,1159.830000C814.443860,1150.467625,818.586639,1141.353511,823.330000,1132.550000C828.294907,1123.260807,833.839187,1114.293102,839.930000,1105.700000C845.931082,1097.168024,852.620055,1089.141257,859.930000,1081.700000C866.620203,1075.150605,873.996031,1069.340464,881.930000,1064.370000Q893.530000,1057.150000,902.330000,1055.590000C905.260000,1055.330000,907.130000,1055.440000,907.930000,1055.900000C905.652597,1057.308396,903.449647,1058.833772,901.330000,1060.470000C898.327419,1062.759918,895.456205,1065.217143,892.730000,1067.830000C889.697423,1070.729136,886.951388,1073.913866,884.530000,1077.340000C882.171489,1080.518359,880.471570,1084.135786,879.530000,1087.980000C878.990000,1090.980000,878.390000,1094.480000,877.730000,1098.540000C877.084260,1102.336369,876.749813,1106.179155,876.730000,1110.030000C876.692642,1113.294179,877.028149,1116.551949,877.730000,1119.740000Q878.730000,1124.060000,881.930000,1124.970000L893.530000,1117.160000C894.597916,1114.466210,896.009616,1111.921787,897.730000,1109.590000C899.779173,1106.686505,902.052805,1103.948116,904.530000,1101.400000C906.974776,1098.851629,909.653171,1096.538166,912.530000,1094.490000C915.330000,1092.490000,917.790000,1091.430000,919.930000,1091.250000Z" fill="rgb(255,255,255)" stroke="none" stroke-width="1"/><path id="ejfwuqrdpsos15" d="M1135.530000,1054.420000C1134.673538,1049.682568,1132.755594,1045.200527,1129.920000,1041.310000C1129.603351,1031.658657,1126.777162,1022.256409,1121.720000,1014.030000Q1114.320000,1002.290000,1098.330000,1000.480000C1086.547710,1000.784942,1074.935146,1003.362117,1064.130000,1008.070000C1051.976996,1013.276270,1040.491762,1019.920316,1029.920000,1027.860000C1018.330605,1036.527860,1007.555970,1046.234738,997.730000,1056.860000C987.639811,1067.673566,978.474353,1079.314367,970.330000,1091.660000C962.524040,1103.474214,955.701126,1115.909309,949.930000,1128.840000C944.643646,1140.433016,940.879078,1152.661138,938.730000,1165.220000C938.190000,1169.010000,937.790000,1172.570000,937.530000,1175.930000C937.270000,1179.290000,937.130000,1182.430000,937.130000,1185.360000Q937.920000,1220.490000,954.730000,1235.820000Q971.540000,1251.150000,997.530000,1249.280000Q1011.530000,1248.050000,1026.530000,1240.340000C1037.068989,1234.830260,1046.934667,1228.118915,1055.930000,1220.340000C1065.967312,1211.717402,1075.204878,1202.205386,1083.530000,1191.920000C1092.220903,1181.303351,1100.106198,1170.052015,1107.120000,1158.260000C1113.978700,1146.740177,1119.930019,1134.703801,1124.920000,1122.260000C1129.648680,1110.714793,1133.069987,1098.676489,1135.120000,1086.370000C1135.602635,1083.828301,1135.936536,1081.260603,1136.120000,1078.680000C1136.265987,1076.491925,1136.600562,1074.320533,1137.120000,1072.190000C1137.175208,1066.228810,1136.642633,1060.276695,1135.530000,1054.420000ZM1107.530000,1076.870000C1106.193572,1085.429972,1103.909540,1093.814816,1100.720000,1101.870000C1097.068542,1111.381843,1092.792561,1120.642014,1087.920000,1129.590000C1082.847606,1138.979575,1077.168915,1148.028737,1070.920000,1156.680000C1065.063172,1164.869098,1058.576855,1172.589153,1051.520000,1179.770000C1045.409936,1186.040521,1038.559598,1191.544298,1031.120000,1196.160000Q1020.710000,1202.470000,1011.120000,1202.910000Q997.940000,1203.270000,993.920000,1193.410000Q989.900000,1183.550000,992.730000,1168.120000C994.030297,1159.646233,996.243161,1151.337932,999.330000,1143.340000C1002.843860,1133.977625,1006.986639,1124.863511,1011.730000,1116.060000C1016.694840,1106.767559,1022.239114,1097.796523,1028.330000,1089.200000C1034.333664,1080.670003,1041.022467,1072.643439,1048.330000,1065.200000C1055.020402,1058.653747,1062.396250,1052.846943,1070.330000,1047.880000Q1081.930000,1040.660000,1090.720000,1039.090000Q1095.130000,1038.720000,1096.320000,1039.400000C1094.042212,1040.811405,1091.839247,1042.340130,1089.720000,1043.980000C1086.719467,1046.268890,1083.848378,1048.722669,1081.120000,1051.330000C1078.095178,1054.240116,1075.349833,1057.427394,1072.920000,1060.850000C1070.564719,1064.030288,1068.865117,1067.647041,1067.920000,1071.490000Q1067.110000,1075.960000,1066.120000,1082.050000C1065.473871,1085.842956,1065.139420,1089.682453,1065.120000,1093.530000C1065.082926,1096.797472,1065.418425,1100.058521,1066.120000,1103.250000Q1067.120000,1107.570000,1070.320000,1108.480000L1081.920000,1100.660000C1082.984243,1097.969589,1084.392637,1095.428430,1086.110000,1093.100000C1088.165704,1090.195572,1090.442463,1087.454101,1092.920000,1084.900000C1095.364622,1082.354463,1098.043065,1080.044306,1100.920000,1078Q1105.120000,1075,1108.320000,1074.750000Z" fill="rgb(255,255,255)" stroke="none" stroke-width="1"/><path id="ejfwuqrdpsos16" d="M1364.520000,1085.790000C1363.001381,1083.338929,1360.950743,1081.260948,1358.520000,1079.710000C1356.030068,1078.085929,1353.243103,1076.971143,1350.320000,1076.430000Q1345.910000,1075.620000,1343.920000,1077.790000Q1333.920000,1092.670000,1321.120000,1109.990000C1312.647448,1121.455370,1303.427410,1132.349046,1293.520000,1142.600000C1284.146230,1152.382735,1273.753895,1161.135763,1262.520000,1168.710000Q1246.320000,1179.540000,1229.520000,1181.400000C1224.521637,1181.848162,1219.484472,1181.266165,1214.720000,1179.690000C1209.943126,1178.128883,1205.664802,1175.330721,1202.320000,1171.580000C1198.698110,1167.461488,1196.094794,1162.549442,1194.720000,1157.240000Q1192.320000,1148.660000,1194.320000,1136.880000C1196.038905,1129.170563,1198.517687,1121.650473,1201.720000,1114.430000C1206.034534,1104.723017,1211.328639,1095.481789,1217.520000,1086.850000Q1232.310000,1071.160000,1249.920000,1055.220000C1257.153718,1048.937533,1263.721652,1041.927268,1269.520000,1034.300000Q1265.520000,1040.300000,1259.120000,1049.610000Q1252.720000,1058.920000,1243.120000,1071.410000C1241.468589,1073.970808,1239.998334,1076.643999,1238.720000,1079.410000C1237.019255,1083.075224,1235.808839,1086.948556,1235.120000,1090.930000C1234.583695,1095.111263,1234.651050,1099.347898,1235.320000,1103.510000C1236.120872,1108.207011,1237.891858,1112.685560,1240.520000,1116.660000C1243.740982,1121.524354,1247.804775,1125.774404,1252.520000,1129.210000Q1260.320000,1135.120000,1273.120000,1139.600000Q1277.920000,1121.990000,1284.920000,1109.970000Q1291.920000,1097.950000,1299.920000,1085.660000Q1307.920000,1072.950000,1317.120000,1058.360000C1322.970208,1049.137093,1328.182385,1039.524636,1332.720000,1029.590000C1335.139867,1024.987341,1335.982975,1019.717914,1335.120000,1014.590000C1334.384168,1009.254041,1332.618078,1004.112004,1329.920000,999.450000C1327.413115,995.072013,1324.085735,991.218363,1320.120000,988.100000Q1314.320000,983.610000,1308.720000,984.100000C1299.096204,985.894057,1289.837002,989.273328,1281.320000,994.100000C1271.690111,999.455667,1262.524855,1005.607093,1253.920000,1012.490000L1260.720000,1001.490000Q1269.510000,987.120000,1278.920000,971.300000Q1288.330000,955.480000,1296.720000,940.940000Q1305.120000,926.410000,1311.720000,914.630000Q1317.490000,904.340000,1320.350000,898.270000C1320.630000,897.680000,1320.880000,897.130000,1321.120000,896.610000C1322.223994,893.869301,1322.830158,890.953618,1322.910000,888C1322.767687,887.958047,1322.630245,887.901059,1322.500000,887.830000C1321.059303,887.063920,1320.495080,885.286839,1321.230000,883.830000L1322.230000,881.890000C1321.934099,880.706490,1321.559943,879.543933,1321.110000,878.410000C1320.560000,877.020000,1319.950000,875.680000,1319.280000,874.410000L1315.830000,881.070000C1315.314659,882.046762,1314.304340,882.661405,1313.200000,882.670000C1312.723923,882.667715,1312.254902,882.554739,1311.830000,882.340000C1310.393034,881.570410,1309.833535,879.794220,1310.570000,878.340000L1315.650000,868.550000C1314.357669,866.775765,1312.930081,865.104116,1311.380000,863.550000L1305.180000,875.490000C1304.805297,876.613943,1303.804222,877.412093,1302.625053,877.527039C1301.445885,877.641985,1300.309512,877.052194,1299.724802,876.021775C1299.140091,874.991356,1299.216573,873.713331,1299.920000,872.760000L1306.770000,859.560000C1305.142261,858.337993,1303.423977,857.241500,1301.630000,856.280000L1294.530000,869.970000C1293.660923,871.183992,1292.031408,871.574162,1290.706746,870.885438C1289.382083,870.196714,1288.765464,868.638725,1289.260000,867.230000L1296.180000,853.900000C1295.760000,853.750000,1295.340000,853.610000,1294.910000,853.480000C1293.338617,852.981670,1291.720071,852.646568,1290.080000,852.480000L1283.880000,864.480000C1283.362968,865.459912,1282.347938,866.075082,1281.240000,866.080000C1280.766990,866.078754,1280.300978,865.965678,1279.880000,865.750000C1278.439303,864.983920,1277.875080,863.206839,1278.610000,861.750000L1283.030000,853.230000C1281.940031,853.576203,1280.893230,854.045922,1279.910000,854.630000Q1276.480000,863.510000,1271.910000,873.630000Q1270.090000,877.630000,1268.100000,881.890000Q1261.100000,896.710000,1252.900000,912.620000Q1244.700000,928.530000,1235.700000,945.130000Q1226.700000,961.720000,1217.500000,977.720000L1201.500000,1004.720000Q1186.700000,1030.420000,1171.900000,1056.510000Q1157.100000,1082.600000,1144.300000,1108.510000Q1131.490000,1134.440000,1121.700000,1160.090000C1115.371785,1176.503381,1110.356042,1193.393061,1106.700000,1210.600000Q1106.310000,1215.850000,1112.100000,1220.530000C1116.061394,1223.720822,1120.521011,1226.237803,1125.300000,1227.980000C1129.824288,1229.738880,1134.646419,1230.604826,1139.500000,1230.530000Q1146.300000,1230.330000,1147.900000,1225.800000Q1150.300000,1215.600000,1153.700000,1205.490000Q1157.100000,1195.380000,1161.100000,1185.040000Q1165.100000,1206.300000,1178.100000,1219.560000Q1191.100000,1232.820000,1213.100000,1231.690000Q1235.490000,1229.690000,1256.300000,1216.110000C1270.680951,1206.599445,1283.903611,1195.444085,1295.700000,1182.870000C1308.278415,1169.564012,1319.970197,1155.447020,1330.700000,1140.610000Q1347.100000,1117.980000,1360.700000,1098.380000L1364.700000,1091.630000L1364.300000,1092.470000C1365.920000,1090.400000,1366,1088.200000,1364.520000,1085.790000Z" fill="rgb(255,255,255)" stroke="none" stroke-width="1"/><path id="ejfwuqrdpsos17" d="M1361.380000,820.920000C1360.812005,819.981256,1360.099982,819.137627,1359.270000,818.420000C1354.660000,813.420000,1347.560000,808.120000,1339.010000,803.680000C1330.290000,799.150000,1321.710000,796.370000,1314.890000,795.550000C1314.231099,795.421773,1313.561259,795.358138,1312.890000,795.360000L1312.890000,795.360000C1308.810297,795.365858,1305.068914,797.629164,1303.170000,801.240000L1301.400000,804.650000L1271.400000,862.540000C1270.064715,865.106581,1269.805618,868.099013,1270.679889,870.856906C1271.554160,873.614799,1273.489930,875.911444,1276.060000,877.240000L1313.910000,896.880000C1320.022682,900.033626,1327.534699,897.656236,1330.720000,891.560000L1360.060000,835L1361.770000,831.700000C1363.547744,828.288784,1363.399596,824.193835,1361.380000,820.920000ZM1281.250000,866C1280.776990,865.998754,1280.310978,865.885678,1279.890000,865.670000C1278.449303,864.903920,1277.885080,863.126839,1278.620000,861.670000L1283.040000,853.150000L1307.850000,805.340000C1308.230826,804.221944,1309.232251,803.431395,1310.408169,803.320519C1311.584087,803.209643,1312.715629,803.799078,1313.298725,804.826246C1313.881822,805.853415,1313.807943,807.127134,1313.110000,808.080000L1290.110000,852.450000L1283.910000,864.450000C1283.376249,865.416918,1282.354386,866.012365,1281.250000,866ZM1291.910000,871.530000C1290.878455,871.514889,1289.927038,870.970809,1289.390889,870.089413C1288.854740,869.208017,1288.809083,868.112968,1289.270000,867.190000L1296.190000,853.860000L1318.500000,810.860000C1318.874703,809.736057,1319.875778,808.937907,1321.054947,808.822961C1322.234115,808.708015,1323.370488,809.297806,1323.955198,810.328225C1324.539909,811.358644,1324.463427,812.636669,1323.760000,813.590000L1301.640000,856.230000L1294.540000,869.920000C1294.038229,870.916144,1293.025232,871.551674,1291.910000,871.570000ZM1302.560000,877.050000C1301.533114,877.029874,1300.587897,876.485816,1300.054704,875.607974C1299.521512,874.730132,1299.474462,873.640536,1299.930000,872.720000L1306.780000,859.520000L1329.150000,816.400000C1329.532494,815.286168,1330.531304,814.499152,1331.703705,814.387800C1332.876107,814.276448,1334.005219,814.861358,1334.590561,815.883268C1335.175903,816.905178,1335.109193,818.175046,1334.420000,819.130000L1311.420000,863.510000L1305.220000,875.450000C1304.710522,876.451762,1303.683863,877.084740,1302.560000,877.090000ZM1315.840000,880.980000C1315.324659,881.956762,1314.314340,882.571405,1313.210000,882.580000C1312.733923,882.577715,1312.264902,882.464739,1311.840000,882.250000C1310.403034,881.480410,1309.843535,879.704220,1310.580000,878.250000L1315.660000,868.460000L1339.800000,822C1340.669077,820.786008,1342.298592,820.395838,1343.623254,821.084562C1344.947917,821.773286,1345.564536,823.331275,1345.070000,824.740000L1319.290000,874.400000ZM1355.720000,830.180000L1326.500000,886.510000C1325.982968,887.489912,1324.967938,888.105082,1323.860000,888.110000C1323.535519,888.112881,1323.213346,888.055229,1322.910000,887.940000C1322.767687,887.898047,1322.630245,887.841059,1322.500000,887.770000C1321.059303,887.003920,1320.495080,885.226839,1321.230000,883.770000L1322.230000,881.830000L1350.440000,827.450000C1350.822494,826.336168,1351.821304,825.549152,1352.993705,825.437800C1354.166107,825.326448,1355.295219,825.911358,1355.880561,826.933268C1356.465903,827.955178,1356.399193,829.225046,1355.710000,830.180000Z" fill="rgb(255,255,255)" stroke="none" stroke-width="1"/></g><g id="ejfwuqrdpsos18" transform="matrix(1 0 0 1 0 100.00002685546872)" opacity="0"><path id="ejfwuqrdpsos19" d="M1095.123361,737.920000C1078.053361,757.120000,1066.803361,775.920000,1062.773361,792.190000C1058.743361,808.460000,1062.773361,826.900000,1075.093361,848.700000C1090.733361,876.700000,1094.763361,887.920000,1094.763361,904.150000C1094.643361,917.070000,1092.273361,926.790000,1085.993361,940.150000C1083.383361,945.610000,1081.373361,950.230000,1081.603361,950.460000C1082.193361,951.170000,1098.543361,931.460000,1103.763361,923.680000C1107.130231,918.396094,1110.063172,912.847920,1112.533361,907.090000C1115.533361,899.620000,1115.963361,896.540000,1115.963361,888.090000C1115.853361,875.660000,1113.593361,869.020000,1103.173361,850.090000C1093.103361,831.840000,1089.903361,824.260000,1087.053361,812.890000C1081.843361,791.090000,1085.633361,768.450000,1099.503361,738.480000C1101.753361,733.480000,1103.503361,729.350000,1103.293361,729.350000C1103.083361,729.350000,1099.383361,733.300000,1095.123361,737.920000Z" fill="rgb(66,66,66)" stroke="none" stroke-width="1"/><path id="ejfwuqrdpsos20" d="M1013.890000,805.460000C999.670000,826.190000,994.100000,840.410000,994.100000,855.580000C994.220000,868.020000,997.100000,875.720000,1007.250000,890.650000C1028.110000,921.100000,1030.830000,927.650000,1029.890000,945.510000C1029.552888,952.083900,1028.318109,958.580790,1026.220000,964.820000C1025.156529,967.641379,1024.284550,970.531270,1023.610000,973.470000C1023.840000,973.470000,1027.050000,968.970000,1030.720000,963.400000C1044.460000,942.780000,1048.370000,926.550000,1043.160000,912.570000C1041.620000,908.770000,1036.050000,899.180000,1030.720000,891.240000C1025.390000,883.300000,1019.580000,874.060000,1017.810000,870.750000C1009.160000,853.560000,1009.040000,832.350000,1017.450000,806.060000C1019.110000,801.060000,1020.300000,796.930000,1020.060000,796.930000C1019.820000,796.930000,1017.090000,800.840000,1013.890000,805.460000Z" fill="rgb(66,66,66)" stroke="none" stroke-width="1"/></g><script><![CDATA[!function(t,n){"object"==typeof exports&&"undefined"!=typeof module?module.exports=n():"function"==typeof define&&define.amd?define(n):(t="undefined"!=typeof globalThis?globalThis:t||self).__SVGATOR_PLAYER__=n()}(this,(function(){"use strict";function t(n){return(t="function"==typeof Symbol&&"symbol"==typeof Symbol.iterator?function(t){return typeof t}:function(t){return t&&"function"==typeof Symbol&&t.constructor===Symbol&&t!==Symbol.prototype?"symbol":typeof t})(n)}function n(t,n){if(!(t instanceof n))throw new TypeError("Cannot call a class as a function")}function r(t,n){for(var r=0;r<n.length;r++){var e=n[r];e.enumerable=e.enumerable||!1,e.configurable=!0,"value"in e&&(e.writable=!0),Object.defineProperty(t,e.key,e)}}function e(t,n,e){return n&&r(t.prototype,n),e&&r(t,e),t}function i(t){return(i=Object.setPrototypeOf?Object.getPrototypeOf:function(t){return t.__proto__||Object.getPrototypeOf(t)})(t)}function o(t,n){return(o=Object.setPrototypeOf||function(t,n){return t.__proto__=n,t})(t,n)}function u(t,n){return!n||"object"!=typeof n&&"function"!=typeof n?function(t){if(void 0===t)throw new ReferenceError("this hasn't been initialised - super() hasn't been called");return t}(t):n}function a(t){var n=function(){if("undefined"==typeof Reflect||!Reflect.construct)return!1;if(Reflect.construct.sham)return!1;if("function"==typeof Proxy)return!0;try{return Date.prototype.toString.call(Reflect.construct(Date,[],(function(){}))),!0}catch(t){return!1}}();return function(){var r,e=i(t);if(n){var o=i(this).constructor;r=Reflect.construct(e,arguments,o)}else r=e.apply(this,arguments);return u(this,r)}}function l(t,n,r){return(l="undefined"!=typeof Reflect&&Reflect.get?Reflect.get:function(t,n,r){var e=function(t,n){for(;!Object.prototype.hasOwnProperty.call(t,n)&&null!==(t=i(t)););return t}(t,n);if(e){var o=Object.getOwnPropertyDescriptor(e,n);return o.get?o.get.call(r):o.value}})(t,n,r||t)}var f=Math.abs;function s(t){return t}function c(t,n,r){var e=1-r;return 3*r*e*(t*e+n*r)+r*r*r}function h(){var t=arguments.length>0&&void 0!==arguments[0]?arguments[0]:0,n=arguments.length>1&&void 0!==arguments[1]?arguments[1]:0,r=arguments.length>2&&void 0!==arguments[2]?arguments[2]:1,e=arguments.length>3&&void 0!==arguments[3]?arguments[3]:1;return t<0||t>1||r<0||r>1?null:f(t-n)<=1e-5&&f(r-e)<=1e-5?s:function(i){if(i<=0)return t>0?i*n/t:0===n&&r>0?i*e/r:0;if(i>=1)return r<1?1+(i-1)*(e-1)/(r-1):1===r&&t<1?1+(i-1)*(n-1)/(t-1):1;for(var o,u=0,a=1;u<a;){var l=c(t,r,o=(u+a)/2);if(f(i-l)<1e-5)break;l<i?u=o:a=o}return c(n,e,o)}}function v(){return 1}function y(t){return 1===t?1:0}function d(){var t=arguments.length>0&&void 0!==arguments[0]?arguments[0]:1,n=arguments.length>1&&void 0!==arguments[1]?arguments[1]:0;if(1===t){if(0===n)return y;if(1===n)return v}var r=1/t;return function(t){return t>=1?1:(t+=n*r)-t%r}}function g(t){var n=arguments.length>1&&void 0!==arguments[1]?arguments[1]:2;if(Number.isInteger(t))return t;var r=Math.pow(10,n);return Math.round(t*r)/r}var p=Math.PI/180;function m(t,n,r){return t>=.5?r:n}function b(t,n,r){return 0===t||n===r?n:t*(r-n)+n}function w(t,n,r){var e=b(t,n,r);return e<=0?0:e}function x(t,n,r){return 0===t?n:1===t?r:{x:b(t,n.x,r.x),y:b(t,n.y,r.y)}}function k(t,n,r){var e=function(t,n,r){return Math.round(b(t,n,r))}(t,n,r);return e<=0?0:e>=255?255:e}function A(t,n,r){return 0===t?n:1===t?r:{r:k(t,n.r,r.r),g:k(t,n.g,r.g),b:k(t,n.b,r.b),a:b(t,null==n.a?1:n.a,null==r.a?1:r.a)}}function _(t,n,r){if(0===t)return n;if(1===t)return r;var e=n.length;if(e!==r.length)return m(t,n,r);for(var i=[],o=0;o<e;o++)i.push(A(t,n[o],r[o]));return i}function S(t,n){for(var r=[],e=0;e<t;e++)r.push(n);return r}function O(t,n){if(--n<=0)return t;var r=(t=Object.assign([],t)).length;do{for(var e=0;e<r;e++)t.push(t[e])}while(--n>0);return t}var M,j=function(){function t(r){n(this,t),this.list=r,this.length=r.length}return e(t,[{key:"setAttribute",value:function(t,n){for(var r=this.list,e=0;e<this.length;e++)r[e].setAttribute(t,n)}},{key:"removeAttribute",value:function(t){for(var n=this.list,r=0;r<this.length;r++)n[r].removeAttribute(t)}},{key:"style",value:function(t,n){for(var r=this.list,e=0;e<this.length;e++)r[e].style[t]=n}}]),t}(),F=/-./g,P=function(t,n){return n.toUpperCase()};function I(t){return"function"==typeof t?t:m}function R(t){return t?"function"==typeof t?t:Array.isArray(t)?function(t){var n=arguments.length>1&&void 0!==arguments[1]?arguments[1]:s;if(!Array.isArray(t))return n;switch(t.length){case 1:return d(t[0])||n;case 2:return d(t[0],t[1])||n;case 4:return h(t[0],t[1],t[2],t[3])||n}return n}(t,null):function(t,n){var r=arguments.length>2&&void 0!==arguments[2]?arguments[2]:s;switch(t){case"linear":return s;case"steps":return d(n.steps||1,n.jump||0)||r;case"bezier":case"cubic-bezier":return h(n.x1||0,n.y1||0,n.x2||0,n.y2||0)||r}return r}(t.type,t.value,null):null}function q(t,n,r){var e=arguments.length>3&&void 0!==arguments[3]&&arguments[3],i=n.length-1;if(t<=n[0].t)return e?[0,0,n[0].v]:n[0].v;if(t>=n[i].t)return e?[i,1,n[i].v]:n[i].v;var o,u=n[0],a=null;for(o=1;o<=i;o++){if(!(t>n[o].t)){a=n[o];break}u=n[o]}return null==a?e?[i,1,n[i].v]:n[i].v:u.t===a.t?e?[o,1,a.v]:a.v:(t=(t-u.t)/(a.t-u.t),u.e&&(t=u.e(t)),e?[o,t,r(t,u.v,a.v)]:r(t,u.v,a.v))}function B(t,n){var r=arguments.length>2&&void 0!==arguments[2]?arguments[2]:null;return t&&t.length?"function"!=typeof n?null:("function"!=typeof r&&(r=null),function(e){var i=q(e,t,n);return null!=i&&r&&(i=r(i)),i}):null}function E(t,n){return t.t-n.t}function T(n,r,e,i,o){var u,a="@"===e[0],l="#"===e[0],f=M[e],s=m;switch(a?(u=e.substr(1),e=u.replace(F,P)):l&&(e=e.substr(1)),t(f)){case"function":if(s=f(i,o,q,R,e,a,r,n),l)return s;break;case"string":s=B(i,I(f));break;case"object":if((s=B(i,I(f.i),f.f))&&"function"==typeof f.u)return f.u(r,s,e,a,n)}return s?function(t,n,r){var e=arguments.length>3&&void 0!==arguments[3]&&arguments[3];if(e)return t instanceof j?function(e){return t.style(n,r(e))}:function(e){return t.style[n]=r(e)};if(Array.isArray(n)){var i=n.length;return function(e){var o=r(e);if(null==o)for(var u=0;u<i;u++)t[u].removeAttribute(n);else for(var a=0;a<i;a++)t[a].setAttribute(n,o)}}return function(e){var i=r(e);null==i?t.removeAttribute(n):t.setAttribute(n,i)}}(r,e,s,a):null}function N(n,r,e,i){if(!i||"object"!==t(i))return null;var o=null,u=null;return Array.isArray(i)?u=function(t){if(!t||!t.length)return null;for(var n=0;n<t.length;n++)t[n].e&&(t[n].e=R(t[n].e));return t.sort(E)}(i):(u=i.keys,o=i.data||null),u?T(n,r,e,u,o):null}function C(t,n,r){if(!r)return null;var e=[];for(var i in r)if(r.hasOwnProperty(i)){var o=N(t,n,i,r[i]);o&&e.push(o)}return e.length?e:null}function z(t,n){if(!n.duration||n.duration<0)return null;var r=function(t,n){if(!n)return null;var r=[];if(Array.isArray(n))for(var e=n.length,i=0;i<e;i++){var o=n[i];if(2===o.length){var u=null;if("string"==typeof o[0])u=t.getElementById(o[0]);else if(Array.isArray(o[0])){u=[];for(var a=0;a<o[0].length;a++)if("string"==typeof o[0][a]){var l=t.getElementById(o[0][a]);l&&u.push(l)}u=u.length?1===u.length?u[0]:new j(u):null}if(u){var f=C(t,u,o[1]);f&&(r=r.concat(f))}}}else for(var s in n)if(n.hasOwnProperty(s)){var c=t.getElementById(s);if(c){var h=C(t,c,n[s]);h&&(r=r.concat(h))}}return r.length?r:null}(t,n.elements);return r?function(t,n){var r=arguments.length>2&&void 0!==arguments[2]?arguments[2]:1/0,e=arguments.length>3&&void 0!==arguments[3]?arguments[3]:1,i=arguments.length>4&&void 0!==arguments[4]&&arguments[4],o=arguments.length>5&&void 0!==arguments[5]?arguments[5]:1,u=t.length,a=e>0?n:0;i&&r%2==0&&(a=n-a);var l=null;return function(f,s){var c=f%n,h=1+(f-c)/n;s*=e,i&&h%2==0&&(s=-s);var v=!1;if(h>r)c=a,v=!0,-1===o&&(c=e>0?0:n);else if(s<0&&(c=n-c),c===l)return!1;l=c;for(var y=0;y<u;y++)t[y](c);return v}}(r,n.duration,n.iterations||1/0,n.direction||1,!!n.alternate,n.fill||1):null}function L(t,n){if(M=n,!t||!t.root||!Array.isArray(t.animations))return null;for(var r=document.getElementsByTagName("svg"),e=!1,i=0;i<r.length;i++)if(r[i].id===t.root&&!r[i].svgatorAnimation){(e=r[i]).svgatorAnimation=!0;break}if(!e)return null;var o=t.animations.map((function(t){return z(e,t)})).filter((function(t){return!!t}));return o.length?{element:e,animations:o,animationSettings:t.animationSettings,options:t.options||void 0}:null}var D=function(){function t(r,e){var i=arguments.length>2&&void 0!==arguments[2]?arguments[2]:{};n(this,t),this._id=0,this._running=!1,this._rollingBack=!1,this._animations=r,this.duration=e.duration,this.alternate=e.alternate,this.fill=e.fill,this.iterations=e.iterations,this.direction=i.direction||1,this.speed=i.speed||1,this.fps=i.fps||100,this.offset=i.offset||0,this.rollbackStartOffset=0}return e(t,[{key:"_rollback",value:function(){var t=this,n=1/0,r=null;this.rollbackStartOffset=this.offset,this._rollingBack||(this._rollingBack=!0,this._running=!0);this._id=window.requestAnimationFrame((function e(i){if(t._rollingBack){null==r&&(r=i);var o=i-r,u=t.rollbackStartOffset-o,a=Math.round(u*t.speed);if(a>t.duration&&n!=1/0){var l=!!t.alternate&&a/t.duration%2>1,f=a%t.duration;a=(f+=l?t.duration:0)||t.duration}var s=t.fps?1e3/t.fps:0,c=Math.max(0,a);if(c<n-s){t.offset=c,n=c;for(var h=t._animations,v=h.length,y=0;y<v;y++)h[y](c,t.direction)}var d=!1;if(t.iterations>0&&-1===t.fill){var g=t.iterations*t.duration,p=g==a;a=p?0:a,t.offset=p?0:t.offset,d=a>g}a>0&&t.offset>=a&&!d?t._id=window.requestAnimationFrame(e):t.stop()}}))}},{key:"_start",value:function(){var t=this,n=arguments.length>0&&void 0!==arguments[0]?arguments[0]:0,r=-1/0,e=null,i={},o=function o(u){t._running=!0,null==e&&(e=u);var a=Math.round((u-e+n)*t.speed),l=t.fps?1e3/t.fps:0;if(a>r+l&&!t._rollingBack){t.offset=a,r=a;for(var f=t._animations,s=f.length,c=0,h=0;h<s;h++)i[h]?c++:(i[h]=f[h](a,t.direction),i[h]&&c++);if(c===s)return void t._stop()}t._id=window.requestAnimationFrame(o)};this._id=window.requestAnimationFrame(o)}},{key:"_stop",value:function(){this._id&&window.cancelAnimationFrame(this._id),this._running=!1,this._rollingBack=!1}},{key:"play",value:function(){!this._rollingBack&&this._running||(this._rollingBack=!1,this.rollbackStartOffset>this.duration&&(this.offset=this.rollbackStartOffset-(this.rollbackStartOffset-this.offset)%this.duration,this.rollbackStartOffset=0),this._start(this.offset))}},{key:"stop",value:function(){this._stop(),this.offset=0,this.rollbackStartOffset=0;var t=this.direction,n=this._animations;window.requestAnimationFrame((function(){for(var r=0;r<n.length;r++)n[r](0,t)}))}},{key:"reachedToEnd",value:function(){return this.iterations>0&&this.offset>=this.iterations*this.duration}},{key:"restart",value:function(){this._stop(),this.offset=0,this._start()}},{key:"pause",value:function(){this._stop()}},{key:"reverse",value:function(){this.direction=-this.direction}}],[{key:"build",value:function(n,r){return(n=L(n,r))?{el:n.element,options:n.options||{},player:new t(n.animations,n.animationSettings,n.options)}:null}}]),t}();!function(){for(var t=0,n=["ms","moz","webkit","o"],r=0;r<n.length&&!window.requestAnimationFrame;++r)window.requestAnimationFrame=window[n[r]+"RequestAnimationFrame"],window.cancelAnimationFrame=window[n[r]+"CancelAnimationFrame"]||window[n[r]+"CancelRequestAnimationFrame"];window.requestAnimationFrame||(window.requestAnimationFrame=function(n){var r=Date.now(),e=Math.max(0,16-(r-t)),i=window.setTimeout((function(){n(r+e)}),e);return t=r+e,i},window.cancelAnimationFrame=window.clearTimeout)}();var Q=/\.0+$/g;function U(t){return Number.isInteger(t)?t+"":t.toFixed(6).replace(Q,"")}function V(t){var n=arguments.length>1&&void 0!==arguments[1]?arguments[1]:" ";return t&&t.length?t.map(U).join(n):""}function $(t){return t?null==t.a||t.a>=1?"rgb("+t.r+","+t.g+","+t.b+")":"rgba("+t.r+","+t.g+","+t.b+","+t.a+")":"transparent"}var G={f:null,i:function(t,n,r){return 0===t?n:1===t?r:{x:w(t,n.x,r.x),y:w(t,n.y,r.y)}},u:function(t,n){return function(r){var e=n(r);t.setAttribute("rx",U(e.x)),t.setAttribute("ry",U(e.y))}}},H={f:null,i:function(t,n,r){return 0===t?n:1===t?r:{width:w(t,n.width,r.width),height:w(t,n.height,r.height)}},u:function(t,n){return function(r){var e=n(r);t.setAttribute("width",U(e.width)),t.setAttribute("height",U(e.height))}}},Y=Math.sin,Z=Math.cos,J=Math.acos,K=Math.asin,W=Math.tan,X=Math.atan2,tt=Math.PI/180,nt=180/Math.PI,rt=Math.sqrt,et=function(){function t(){var r=arguments.length>0&&void 0!==arguments[0]?arguments[0]:1,e=arguments.length>1&&void 0!==arguments[1]?arguments[1]:0,i=arguments.length>2&&void 0!==arguments[2]?arguments[2]:0,o=arguments.length>3&&void 0!==arguments[3]?arguments[3]:1,u=arguments.length>4&&void 0!==arguments[4]?arguments[4]:0,a=arguments.length>5&&void 0!==arguments[5]?arguments[5]:0;n(this,t),this.m=[r,e,i,o,u,a],this.i=null,this.w=null,this.s=null}return e(t,[{key:"determinant",get:function(){var t=this.m;return t[0]*t[3]-t[1]*t[2]}},{key:"isIdentity",get:function(){if(null===this.i){var t=this.m;this.i=1===t[0]&&0===t[1]&&0===t[2]&&1===t[3]&&0===t[4]&&0===t[5]}return this.i}},{key:"point",value:function(t,n){var r=this.m;return{x:r[0]*t+r[2]*n+r[4],y:r[1]*t+r[3]*n+r[5]}}},{key:"translateSelf",value:function(){var t=arguments.length>0&&void 0!==arguments[0]?arguments[0]:0,n=arguments.length>1&&void 0!==arguments[1]?arguments[1]:0;if(!t&&!n)return this;var r=this.m;return r[4]+=r[0]*t+r[2]*n,r[5]+=r[1]*t+r[3]*n,this.w=this.s=this.i=null,this}},{key:"rotateSelf",value:function(){var t=arguments.length>0&&void 0!==arguments[0]?arguments[0]:0;if(t%=360){var n=Y(t*=tt),r=Z(t),e=this.m,i=e[0],o=e[1];e[0]=i*r+e[2]*n,e[1]=o*r+e[3]*n,e[2]=e[2]*r-i*n,e[3]=e[3]*r-o*n,this.w=this.s=this.i=null}return this}},{key:"scaleSelf",value:function(){var t=arguments.length>0&&void 0!==arguments[0]?arguments[0]:1,n=arguments.length>1&&void 0!==arguments[1]?arguments[1]:1;if(1!==t||1!==n){var r=this.m;r[0]*=t,r[1]*=t,r[2]*=n,r[3]*=n,this.w=this.s=this.i=null}return this}},{key:"skewSelf",value:function(t,n){if(n%=360,(t%=360)||n){var r=this.m,e=r[0],i=r[1],o=r[2],u=r[3];t&&(t=W(t*tt),r[2]+=e*t,r[3]+=i*t),n&&(n=W(n*tt),r[0]+=o*n,r[1]+=u*n),this.w=this.s=this.i=null}return this}},{key:"resetSelf",value:function(){var t=arguments.length>0&&void 0!==arguments[0]?arguments[0]:1,n=arguments.length>1&&void 0!==arguments[1]?arguments[1]:0,r=arguments.length>2&&void 0!==arguments[2]?arguments[2]:0,e=arguments.length>3&&void 0!==arguments[3]?arguments[3]:1,i=arguments.length>4&&void 0!==arguments[4]?arguments[4]:0,o=arguments.length>5&&void 0!==arguments[5]?arguments[5]:0,u=this.m;return u[0]=t,u[1]=n,u[2]=r,u[3]=e,u[4]=i,u[5]=o,this.w=this.s=this.i=null,this}},{key:"recomposeSelf",value:function(){var t=arguments.length>0&&void 0!==arguments[0]?arguments[0]:null,n=arguments.length>1&&void 0!==arguments[1]?arguments[1]:null,r=arguments.length>2&&void 0!==arguments[2]?arguments[2]:null,e=arguments.length>3&&void 0!==arguments[3]?arguments[3]:null,i=arguments.length>4&&void 0!==arguments[4]?arguments[4]:null;return this.isIdentity||this.resetSelf(),t&&(t.x||t.y)&&this.translateSelf(t.x,t.y),n&&this.rotateSelf(n),r&&(r.x&&this.skewSelf(r.x,0),r.y&&this.skewSelf(0,r.y)),!e||1===e.x&&1===e.y||this.scaleSelf(e.x,e.y),i&&(i.x||i.y)&&this.translateSelf(i.x,i.y),this}},{key:"decompose",value:function(){var t=arguments.length>0&&void 0!==arguments[0]?arguments[0]:0,n=arguments.length>1&&void 0!==arguments[1]?arguments[1]:0,r=this.m,e=r[0]*r[0]+r[1]*r[1],i=[[r[0],r[1]],[r[2],r[3]]],o=rt(e);if(0===o)return{origin:{x:r[4],y:r[5]},translate:{x:t,y:n},scale:{x:0,y:0},skew:{x:0,y:0},rotate:0};i[0][0]/=o,i[0][1]/=o;var u=r[0]*r[3]-r[1]*r[2]<0;u&&(o=-o);var a=i[0][0]*i[1][0]+i[0][1]*i[1][1];i[1][0]-=i[0][0]*a,i[1][1]-=i[0][1]*a;var l=rt(i[1][0]*i[1][0]+i[1][1]*i[1][1]);if(0===l)return{origin:{x:r[4],y:r[5]},translate:{x:t,y:n},scale:{x:o,y:0},skew:{x:0,y:0},rotate:0};i[1][0]/=l,i[1][1]/=l,a/=l;var f=0;return i[1][1]<0?(f=J(i[1][1])*nt,i[0][1]<0&&(f=360-f)):f=K(i[0][1])*nt,u&&(f=-f),a=X(a,rt(i[0][0]*i[0][0]+i[0][1]*i[0][1]))*nt,u&&(a=-a),{origin:{x:r[4],y:r[5]},translate:{x:t,y:n},scale:{x:o,y:l},skew:{x:a,y:0},rotate:f}}},{key:"toString",value:function(){return null===this.s&&(this.s="matrix("+this.m.map(ot).join(" ")+")"),this.s}}]),t}(),it=/\.0+$/;function ot(t){return Number.isInteger(t)?t:t.toFixed(14).replace(it,"")}function ut(t,n,r){return t+(n-t)*r}function at(t,n,r){var e=arguments.length>3&&void 0!==arguments[3]&&arguments[3],i={x:ut(t.x,n.x,r),y:ut(t.y,n.y,r)};return e&&(i.a=lt(t,n)),i}function lt(t,n){return Math.atan2(n.y-t.y,n.x-t.x)}Object.freeze({M:2,L:2,Z:0,H:1,V:1,C:6,Q:4,T:2,S:4,A:7});var ft={},st=null;function ct(n){var r=function(){if(st)return st;if("object"!==("undefined"==typeof document?"undefined":t(document)))return{};var n=document.createElementNS("http://www.w3.org/2000/svg","svg");return n.style.position="absolute",n.style.opacity="0.01",n.style.zIndex="-9999",n.style.left="-9999px",n.style.width="1px",n.style.height="1px",st={svg:n}}().svg;if(!r)return function(t){return null};var e=document.createElementNS(r.namespaceURI,"path");e.setAttributeNS(null,"d",n),e.setAttributeNS(null,"fill","none"),e.setAttributeNS(null,"stroke","none"),r.appendChild(e);var i=e.getTotalLength();return function(t){var n=e.getPointAtLength(i*t);return{x:n.x,y:n.y}}}function ht(t){return ft[t]?ft[t]:ft[t]=ct(t)}function vt(t,n,r,e){if(!t||!e)return!1;var i=["M",t.x,t.y];if(n&&r&&(i.push("C"),i.push(n.x),i.push(n.y),i.push(r.x),i.push(r.y)),n?!r:r){var o=n||r;i.push("Q"),i.push(o.x),i.push(o.y)}return n||r||i.push("L"),i.push(e.x),i.push(e.y),i.join(" ")}function yt(t,n,r,e){var i=arguments.length>4&&void 0!==arguments[4]?arguments[4]:1,o=vt(t,n,r,e),u=ht(o);try{return u(i)}catch(t){return null}}function dt(t,n,r,e){var i=1-e;return i*i*t+2*i*e*n+e*e*r}function gt(t,n,r,e){return 2*(1-e)*(n-t)+2*e*(r-n)}function pt(t,n,r,e){var i=arguments.length>4&&void 0!==arguments[4]&&arguments[4],o=yt(t,n,null,r,e);return o||(o={x:dt(t.x,n.x,r.x,e),y:dt(t.y,n.y,r.y,e)}),i&&(o.a=mt(t,n,r,e)),o}function mt(t,n,r,e){return Math.atan2(gt(t.y,n.y,r.y,e),gt(t.x,n.x,r.x,e))}function bt(t,n,r,e,i){var o=i*i;return i*o*(e-t+3*(n-r))+3*o*(t+r-2*n)+3*i*(n-t)+t}function wt(t,n,r,e,i){var o=1-i;return 3*(o*o*(n-t)+2*o*i*(r-n)+i*i*(e-r))}function xt(t,n,r,e,i){var o=arguments.length>5&&void 0!==arguments[5]&&arguments[5],u=yt(t,n,r,e,i);return u||(u={x:bt(t.x,n.x,r.x,e.x,i),y:bt(t.y,n.y,r.y,e.y,i)}),o&&(u.a=kt(t,n,r,e,i)),u}function kt(t,n,r,e,i){return Math.atan2(wt(t.y,n.y,r.y,e.y,i),wt(t.x,n.x,r.x,e.x,i))}function At(t,n,r){var e=arguments.length>3&&void 0!==arguments[3]&&arguments[3];if(St(n)){if(Ot(r))return pt(n,r.start,r,t,e)}else if(St(r)){if(n.end)return pt(n,n.end,r,t,e)}else{if(n.end)return r.start?xt(n,n.end,r.start,r,t,e):pt(n,n.end,r,t,e);if(r.start)return pt(n,r.start,r,t,e)}return at(n,r,t,e)}function _t(t,n,r){var e=At(t,n,r,!0);return e.a=function(t){var n=arguments.length>1&&void 0!==arguments[1]&&arguments[1];return n?t+Math.PI:t}(e.a)/p,e}function St(t){return!t.type||"corner"===t.type}function Ot(t){return null!=t.start&&!St(t)}var Mt=new et;var jt={f:U,i:b},Ft={f:U,i:function(t,n,r){var e=b(t,n,r);return e<=0?0:e>=1?1:e}};function Pt(t,n,r,e,i,o,u,a){return n=function(t,n,r){for(var e,i,o,u=t.length-1,a={},l=0;l<=u;l++)(e=t[l]).e&&(e.e=n(e.e)),e.v&&"g"===(i=e.v).t&&i.r&&(o=r.getElementById(i.r))&&(a[i.r]=o.querySelectorAll("stop"));return a}(t,e,a),function(e){var i,o=r(e,t,It);return o?"c"===o.t?$(o.v):"g"===o.t?(n[o.r]&&function(t,n){for(var r=0,e=t.length;r<e;r++)t[r].setAttribute("stop-color",$(n[r]))}(n[o.r],o.v),(i=o.r)?"url(#"+i+")":"none"):"none":"none"}}function It(t,n,r){if(0===t)return n;if(1===t)return r;if(n&&r){var e=n.t;if(e===r.t)switch(n.t){case"c":return{t:e,v:A(t,n.v,r.v)};case"g":if(n.r===r.r)return{t:e,v:_(t,n.v,r.v),r:n.r}}}return m(t,n,r)}var Rt={fill:Pt,"fill-opacity":Ft,stroke:Pt,"stroke-opacity":Ft,"stroke-width":jt,"stroke-dashoffset":{f:U,i:b},"stroke-dasharray":{f:function(t){var n=arguments.length>1&&void 0!==arguments[1]?arguments[1]:" ";return t&&t.length>0&&(t=t.map((function(t){return Math.floor(1e4*t)/1e4}))),V(t,n)},i:function(t,n,r){var e,i,o,u=n.length,a=r.length;if(u!==a)if(0===u)n=S(u=a,0);else if(0===a)a=u,r=S(u,0);else{var l=(o=(e=u)*(i=a)/function(t,n){for(var r;n;)r=n,n=t%n,t=r;return t||1}(e,i))<0?-o:o;n=O(n,Math.floor(l/u)),r=O(r,Math.floor(l/a)),u=a=l}for(var f=[],s=0;s<u;s++)f.push(g(w(t,n[s],r[s]),6));return f}},opacity:Ft,transform:function(n,r,e,i){if(!(n=function(n,r){if(!n||"object"!==t(n))return null;var e=!1;for(var i in n)n.hasOwnProperty(i)&&(n[i]&&n[i].length?(n[i].forEach((function(t){t.e&&(t.e=r(t.e))})),e=!0):delete n[i]);return e?n:null}(n,i)))return null;var o=function(t,i,o){var u=arguments.length>3&&void 0!==arguments[3]?arguments[3]:null;return n[t]?e(i,n[t],o):r&&r[t]?r[t]:u};return r&&r.a&&n.o?function(t){var r=e(t,n.o,_t);return Mt.recomposeSelf(r,o("r",t,b,0)+r.a,o("k",t,x),o("s",t,x),o("t",t,x)).toString()}:function(t){return Mt.recomposeSelf(o("o",t,At,null),o("r",t,b,0),o("k",t,x),o("s",t,x),o("t",t,x)).toString()}},r:jt,"#size":H,"#radius":G,_:function(t,n){if(Array.isArray(t))for(var r=0;r<t.length;r++)this[t[r]]=n;else this[t]=n}};return function(t){!function(t,n){if("function"!=typeof n&&null!==n)throw new TypeError("Super expression must either be null or a function");t.prototype=Object.create(n&&n.prototype,{constructor:{value:t,writable:!0,configurable:!0}}),n&&o(t,n)}(u,t);var r=a(u);function u(){return n(this,u),r.apply(this,arguments)}return e(u,null,[{key:"build",value:function(t){var n=l(i(u),"build",this).call(this,t,Rt);n.el,n.options;var r=n.player;return function(t){t.play()}(r),r}}]),u}(D)}));
__SVGATOR_PLAYER__.build({"root":"ejfwuqrdpsos1","animations":[{"duration":3000,"direction":1,"iterations":1,"fill":1,"alternate":false,"elements":{"ejfwuqrdpsos2":{"transform":{"data":{"o":{"x":1250,"y":1250,"type":"corner"}},"keys":{"s":[{"t":0,"v":{"x":0,"y":0},"e":[0.165,1.06,0.75,1.5]},{"t":600,"v":{"x":1,"y":1},"e":[0.165,1.06,0.75,1.5]}]}}},"ejfwuqrdpsos3":{"transform":{"data":{"o":{"x":1250,"y":1250,"type":"corner"}},"keys":{"r":[{"t":0,"v":0,"e":[0,0,0.5,1]},{"t":3000,"v":24.916943521594686}],"s":[{"t":0,"v":{"x":0,"y":0},"e":[0.25,0.675,0.6,1.5]},{"t":500,"v":{"x":1,"y":1},"e":[0.25,0.675,0.6,1.5]}]}}},"ejfwuqrdpsos4":{"transform":{"data":{"o":{"x":1346.6991577148438,"y":1679.4029541015625,"type":"corner"},"t":{"x":-1346.6991577148438,"y":-1679.4029541015625}},"keys":{"r":[{"t":1000,"v":0},{"t":1100,"v":10},{"t":1200,"v":0}]}},"opacity":[{"t":900,"v":0,"e":[0.42,0,0.58,1]},{"t":1000,"v":1,"e":[0.42,0,0.58,1]}]},"ejfwuqrdpsos5":{"transform":{"data":{"t":{"x":-1250.5934448242188,"y":-1648.7716064453125}},"keys":{"o":[{"t":1300,"v":{"x":1250.59,"y":1648.7716064453125,"type":"corner"}},{"t":1400,"v":{"x":1260.59,"y":1648.7716064453125,"type":"corner"}},{"t":1500,"v":{"x":1245.59,"y":1648.7716064453125,"type":"corner"}},{"t":1600,"v":{"x":1250.5934448242188,"y":1648.7716064453125,"type":"corner"}}],"r":[{"t":1300,"v":0},{"t":1400,"v":10},{"t":1500,"v":-5},{"t":1600,"v":0}]}}},"ejfwuqrdpsos18":{"transform":{"data":{"t":{"x":-1052.5700073242188,"y":-851.4099731445312}},"keys":{"o":[{"t":1500,"v":{"x":1052.5700073242188,"y":951.41,"type":"corner"},"e":[0.42,0,0.58,1]},{"t":1700,"v":{"x":1052.5700073242188,"y":851.4099731445312,"type":"corner"},"e":[0.42,0,0.58,1]}]}},"opacity":[{"t":1500,"v":0,"e":[0.42,0,0.58,1]},{"t":1700,"v":1,"e":[0.42,0,0.58,1]}]}}}],"options":{"start":"load","hover":"freeze","click":"freeze","scroll":25,"font":"embed","exportedIds":"unique","title":"Animation"},"animationSettings":{"duration":3000,"direction":1,"iterations":1,"fill":1,"alternate":false}})]]></script></svg>